<?xml version="1.0" encoding="utf-8"?>
<!-- Generator: Adobe Illustrator 24.3.0, SVG Export Plug-In . SVG Version: 6.00 Build 0)  -->
<svg version="1.1" id="Layer_1" xmlns="http://www.w3.org/2000/svg" xmlns:xlink="http://www.w3.org/1999/xlink" x="0px" y="0px"
	 viewBox="0 0 200 200" style="enable-background:new 0 0 200 200;" xml:space="preserve">
<style type="text/css">
	.st0{fill:none;stroke:#1B1B1B;stroke-width:5;stroke-miterlimit:10;}
	.st1{fill:#1B1B1B;}
</style>
<g>
	<rect x="120.7" y="135.6" class="st0" width="41.8" height="19.5"/>
	<rect x="79.2" y="135.6" class="st0" width="41.8" height="19.5"/>
	<rect x="100.1" y="116.2" class="st0" width="41.8" height="19.5"/>
	<rect x="58.4" y="116.2" class="st0" width="41.8" height="19.5"/>
	<rect x="120.8" y="96.7" class="st0" width="41.8" height="19.5"/>
	<rect x="79.1" y="96.7" class="st0" width="41.8" height="19.5"/>
	<rect x="141.8" y="77.2" class="st0" width="20.8" height="19.5"/>
	<rect x="141.7" y="116.2" class="st0" width="20.9" height="19.5"/>
	<polyline class="st0" points="66.7,155.1 79.2,155.1 79.2,135.6 37.4,135.6 37.4,155.1 58.3,155.1 	"/>
	<polyline class="st0" points="127,77.2 100,77.2 100,96.7 141.8,96.7 141.8,77.2 134.9,77.2 	"/>
</g>
<path class="st1" d="M110.6,17.3l-0.1-0.2c-2.1-2.9-6.3-3.6-9.2-1.4L82.8,29.2c-2.6,1.9-3.4,5.5-2,8.3L75,41.2l-0.4,16.2l-8.4,6.8
	l3.2,1.7l8.2-7.3L77.8,43l4.8-3.3c2.3,2,5.7,2.2,8.2,0.4l18.4-13.5C112.1,24.4,112.7,20.2,110.6,17.3z"/>
<path class="st1" d="M54.5,57.1c-0.9,0.9-1.4,2.1-1.6,3.3c-0.2,1.4-1.2,3.7-4.5,5.5c-5.2,2.9-11.1,5.1-10.9,12.8
	c0.1,7.6,10.1,0.8,10.5,0.8s3.3-2.4,8.5-2.4c4.6,0,18.2-5.2,21.5-6.5c0.6-0.2,0.8-0.9,0.5-1.4c-0.5-0.7-1.8-1.9-4.5-3.6L72.4,64
	c-0.6-0.7-1.1-1.4-1.5-2.2c-0.3-0.6-1.3-1.6-4.1-2.5l-1.6-1.1C65.2,58.1,59.1,52.3,54.5,57.1z"/>
<path class="st1" d="M74,61.7c1.4,1.5,3.3,3.2,5.7,5c6.1,4.4-1.1,6.2-1.1,6.2S59.3,79,56.1,79.1c-3.2,0.1-5.1,0.9-8.2,3.2
	c-3.1,2.3-6.2,2-6.2,2l-0.9-0.1L38,89l54.5-17.3L74,61.7z"/>
</svg>
