<?xml version="1.0" encoding="utf-8"?>
<!-- Generator: Adobe Illustrator 24.3.0, SVG Export Plug-In . SVG Version: 6.00 Build 0)  -->
<svg version="1.1" id="Layer_1" xmlns="http://www.w3.org/2000/svg" xmlns:xlink="http://www.w3.org/1999/xlink" x="0px" y="0px"
	 viewBox="0 0 200 200" style="enable-background:new 0 0 200 200;" xml:space="preserve">
<style type="text/css">
	.st0{fill:#1D1D1B;}
</style>
<g>
	<rect x="25" y="122.3" class="st0" width="6.6" height="13.8"/>
	<rect x="64.1" y="108.9" class="st0" width="6.6" height="27.2"/>
	<rect x="103.3" y="100.3" class="st0" width="6.6" height="35.6"/>
	<rect x="36.1" y="130.6" class="st0" width="23.7" height="5.5"/>
	<rect x="74.9" y="130.6" class="st0" width="24.2" height="5.5"/>
	<rect x="75.3" y="120.9" class="st0" width="24.2" height="5.5"/>
	<rect x="75.3" y="111.2" class="st0" width="24.2" height="5.5"/>
	<path class="st0" d="M25,140.3V173h85v-32.7H25z M51.2,165.8h-20v-18.4h20V165.8z M70.6,165.8H57.4v-18.4h13.1V165.8z M96.5,165.8
		H77.2v-18.4h19.3V165.8z"/>
	<path class="st0" d="M189,97.9v-26h-33L142.2,27l-11.9,44.9h-12.8v0.2l-2-3H26.2L11,85v0h112.7v12.9h6.9v59.4h-4.9l-9.3,14.8v0.5
		h57.9v-0.3l-9.5-14.9h-8.6V97.9h6.6v-13h6.7v13H189z M35.1,79.2H24.5l4.6-4.5h10.4L35.1,79.2z M53.3,79.2H42.7l4.5-4.5h10.6
		L53.3,79.2z M71.7,79.2H60.9l4.5-4.5h10.7L71.7,79.2z M90,79.2H79.3l4.5-4.5h10.6L90,79.2z M97.6,79.2l4.5-4.5h10.4l2.9,4.5H97.6z
		 M142.7,44.5l3.3,10.8l-8.2,7.8L142.7,44.5z M150,157.3h-13.2v-2.9l13.2-11.9V157.3z M150,134.8l-13.2,11.9v-10.7l13.2-11.9V134.8z
		 M150,116.8l-0.2-0.2l-13.1,11.8v-10.3l13.2-11.9V116.8z M136.8,110.5V99.1h12.7L136.8,110.5z M150,91.8h-20V78.3h20V91.8z
		 M136.8,71.9l11.1-10.5l3.2,10.5H136.8z"/>
</g>
</svg>
