<?xml version="1.0" encoding="utf-8"?>
<!-- Generator: Adobe Illustrator 24.3.0, SVG Export Plug-In . SVG Version: 6.00 Build 0)  -->
<svg version="1.1" id="Layer_1" xmlns="http://www.w3.org/2000/svg" xmlns:xlink="http://www.w3.org/1999/xlink" x="0px" y="0px"
	 viewBox="0 0 200 200" style="enable-background:new 0 0 200 200;" xml:space="preserve">
<style type="text/css">
	.st0{fill:#1D1D1B;}
</style>
<g>
	<path class="st0" d="M80.8,80.4v8.1H58.9v43.9h21.8v8.3H29v-8.3h21.9V88.5H29v-8.1H80.8 M85.8,75.4h-5H29h-5v5v8.1v5h5h16.9v33.9
		H29h-5v5v8.3v5h5h51.8h5v-5v-8.3v-5h-5H63.9V93.5h16.8h5v-5v-8.1V75.4L85.8,75.4z"/>
</g>
<g>
	<polygon class="st0" points="160.4,182.3 95.1,183.2 24,145.7 83.1,140.5 	"/>
</g>
<g>
	<polygon class="st0" points="181.7,145.9 181.7,161.9 60.9,93.2 85.7,89.6 	"/>
</g>
<g>
	<polygon class="st0" points="182.1,132.9 182.1,138 85.8,81 85.8,75.4 	"/>
</g>
<g>
	<polygon class="st0" points="178.1,179 173.5,181.4 85.8,133.2 85.8,127.5 	"/>
</g>
<g>
	<polygon class="st0" points="47,99.3 47.1,103.8 24.1,93.5 50.9,89.6 	"/>
</g>
<rect x="129.8" y="102.9" class="st0" width="3.2" height="65.5"/>
<rect x="114.4" y="52.6" transform="matrix(0.8246 -0.5657 0.5657 0.8246 -25.2752 79.7371)" class="st0" width="3" height="56"/>
<rect x="73.5" y="48.2" transform="matrix(0.641 0.7675 -0.7675 0.641 77.458 -34.009)" class="st0" width="3.2" height="35.2"/>
<circle class="st0" cx="95" cy="26.4" r="8.3"/>
<path class="st0" d="M100.9,47.1c0,0,0.5-2,2.7-2c2.2,0,2.3,1.9,2.4,2s0.9,7.2-3.6,10.6c-4.5,3.4-9.5,1.8-9.7,1.7
	c-0.2-0.1-6.1-2.3-6.9-8.9c-0.8-6.6,3.6-9.5,4.2-9.8c0.6-0.3,2.8-1.4,2.8-5.9c0-4.5,0.1-4.1,0.1-4.1l5.6,0.9L98,34.4
	c0,0-0.1,2.9-0.1,3s-0.8,2.4-1,3c-0.2,0.6-2.4,4-4.4,4.9c-2,0.9-3.2,8.2,2,9C99.6,55.2,100.9,52.8,100.9,47.1z"/>
</svg>
