<?xml version="1.0" encoding="utf-8"?>
<!-- Generator: Adobe Illustrator 24.3.0, SVG Export Plug-In . SVG Version: 6.00 Build 0)  -->
<svg version="1.1" id="Layer_1" xmlns="http://www.w3.org/2000/svg" xmlns:xlink="http://www.w3.org/1999/xlink" x="0px" y="0px"
	 viewBox="0 0 200 200" style="enable-background:new 0 0 200 200;" xml:space="preserve">
<style type="text/css">
	.st0{fill:#1D1D1B;}
</style>
<g>
	<path class="st0" d="M108.3,138.3c3.8,0,6.8,3.1,6.8,6.8v3.9c0,3.8-3.1,6.8-6.8,6.8H16.6c-3.8,0-6.8-3.1-6.8-6.8v-3.9
		c0-3.8,3.1-6.8,6.8-6.8H108.3 M108.3,134.3H16.6c-6,0-10.8,4.9-10.8,10.8v3.9c0,6,4.9,10.8,10.8,10.8h91.7c6,0,10.8-4.9,10.8-10.8
		v-3.9C119.1,139.1,114.2,134.3,108.3,134.3L108.3,134.3z"/>
</g>
<g>
	<path class="st0" d="M19.7,144.3c1.5,0,2.8,1.2,2.8,2.8c0,1.5-1.2,2.8-2.8,2.8S17,148.6,17,147C17,145.5,18.2,144.3,19.7,144.3
		 M19.7,140.3c-3.7,0-6.8,3-6.8,6.8s3,6.8,6.8,6.8s6.8-3,6.8-6.8S23.5,140.3,19.7,140.3L19.7,140.3z"/>
</g>
<g>
	<path class="st0" d="M104.7,144.3c1.5,0,2.8,1.2,2.8,2.8c0,1.5-1.2,2.8-2.8,2.8c-1.5,0-2.8-1.2-2.8-2.8
		C101.9,145.5,103.2,144.3,104.7,144.3 M104.7,140.3c-3.7,0-6.8,3-6.8,6.8s3,6.8,6.8,6.8s6.8-3,6.8-6.8S108.4,140.3,104.7,140.3
		L104.7,140.3z"/>
</g>
<path class="st0" d="M94.8,143.3h-6.4c-1.3-2.2-3.6-3.6-6.3-3.6c-2.7,0-5,1.5-6.3,3.6h-8.3c-1.3-2.2-3.6-3.6-6.3-3.6
	c-2.7,0-5,1.5-6.3,3.6h-7.2c-1.3-2.2-3.6-3.6-6.3-3.6s-5,1.5-6.3,3.6h-6.2v7.4H35c1.3,2.2,3.6,3.7,6.3,3.7s5.1-1.5,6.3-3.7h7.1
	c1.3,2.2,3.6,3.7,6.3,3.7c2.7,0,5.1-1.5,6.3-3.7h8.2c1.3,2.2,3.6,3.7,6.3,3.7c2.7,0,5.1-1.5,6.3-3.7h6.4V143.3z"/>
<path class="st0" d="M90.4,72.8H66.7l-3.6,25.3H11.3v26h28v5.7h40.3v-5.7h21.2l8.4-3.6C109.2,120.6,111.2,86.9,90.4,72.8z
	 M38.6,112.1H20.1v-1.8h18.5V112.1z M38.6,107.8H20.1V106h18.5V107.8z M38.6,104.1H20.1v-1.8h18.5V104.1z M100.8,118.2v-6.8
	L83.1,98.1H68.3l3-19.8l17.4-0.1c0,0,15.4,11.2,15.3,38.7L100.8,118.2z"/>
<path class="st0" d="M196.4,42.2l-6.8-1.5l-2.1,2.7l-26.9,5.4l-1-0.9L132,54.4l-0.4,6.5L119,63.2l-17.4,14.5c0,0,9,9.7,9.7,23.6
	l17-24.6l9.2-2.9l-12.2,17.4l-1.5-0.9l-12.4,16.4l0.5,8.2l16.8-20.5l-1.3-1.2l15.2-20.9l26.2-8.3c0,0,6.7-1.8,7.7-3.6l-0.7,60.2
	c0,0-6.1,5.3-13.1,3.8c-7-1.5-18.1,2.1-18.1,2.1l-4.1-4.4l-2.1,1.8l6.6,10.2l1.9-1.5c0,0,12.3,16.4,22.6,17.1
	c3.4,0.2,5.8-0.6,7.5-1.8c2.4-1.7,3.3-4.1,4.2-7.1c1.3-4,2.8-9.5,4.2-16.3c-1.1-0.3-2.3-1.2-2.3-1.2s2.5-26.9,9.4-59.3
	C194.5,54.9,195.7,47.3,196.4,42.2z M180.9,53.9l-0.5-2.2l-38.2,6.8L161,53l0-1.7l24.9-4.7L180.9,53.9z"/>
</svg>
