<?xml version="1.0" encoding="utf-8"?>
<!-- Generator: Adobe Illustrator 24.3.0, SVG Export Plug-In . SVG Version: 6.00 Build 0)  -->
<svg version="1.1" id="Layer_1" xmlns="http://www.w3.org/2000/svg" xmlns:xlink="http://www.w3.org/1999/xlink" x="0px" y="0px"
	 viewBox="0 0 595.3 320" style="enable-background:new 0 0 595.3 320;" xml:space="preserve">
<style type="text/css">
	.st0{fill:#DAAC31;}
	.st1{font-family:'MyriadPro-Regular';}
	.st2{font-size:12px;}
	.st3{font-family:'MyriadPro-Bold';}
	.st4{fill:none;stroke:#DAAC31;stroke-miterlimit:10;}
	.st5{fill:#DAAC31;stroke:#2A363B;stroke-miterlimit:10;}
	.st6{fill:#2A363B;}
	.st7{fill:#FFFFFF;stroke:#DAAC31;stroke-miterlimit:10;}
	.st8{fill:#FFFFFF;}
	.st9{font-size:24px;}
	.st10{font-size:10px;}
	.st11{fill:#2A363B;stroke:#DAAC31;stroke-miterlimit:10;}
	.st12{fill:none;stroke:#FFFFFF;stroke-width:3;stroke-linecap:round;stroke-linejoin:round;stroke-miterlimit:10;}
	.st13{fill:#DAAC31;stroke:#DAAC31;stroke-miterlimit:10;}
</style>
<text transform="matrix(1 0 0 1 97.7057 55.4633)" class="st0 st1 st2">Главная</text>
<text transform="matrix(1 0 0 1 95.7076 88.233)" class="st0 st3 st2">Главная</text>
<g>
	<text transform="matrix(1 0 0 1 97.7056 114.7714)" class="st0 st1 st2">Главная</text>
	<line class="st4" x1="93.4" y1="117.6" x2="142.4" y2="117.6"/>
</g>
<path class="st5" d="M335.4,64.3H290c-4.2,0-7.7-3.5-7.7-7.7l0,0c0-4.2,3.5-7.7,7.7-7.7h45.4c4.2,0,7.7,3.5,7.7,7.7l0,0
	C343.1,60.8,339.6,64.3,335.4,64.3z"/>
<text transform="matrix(1 0 0 1 292.7117 60.0663)" class="st6 st3 st2">кнопка</text>
<path class="st7" d="M335.4,98.6H290c-4.2,0-7.7-3.5-7.7-7.7l0,0c0-4.2,3.5-7.7,7.7-7.7h45.4c4.2,0,7.7,3.5,7.7,7.7l0,0
	C343.1,95.1,339.6,98.6,335.4,98.6z"/>
<text transform="matrix(1 0 0 1 292.7119 94.399)" class="st6 st3 st2">кнопка</text>
<rect x="96.5" y="179" class="st0" width="30.6" height="131.3"/>
<rect x="109.3" y="189.4" class="st8" width="3" height="50"/>
<rect x="109.2" y="246.1" class="st6" width="3" height="50"/>
<rect x="141.4" y="179" class="st6" width="30.6" height="131.3"/>
<rect x="154.2" y="189.4" class="st8" width="3" height="50"/>
<rect x="154.1" y="246.1" class="st0" width="3" height="50"/>
<text transform="matrix(1 0 0 1 9.5066 30.7145)" class="st3 st9">Меню</text>
<text transform="matrix(1 0 0 1 196.712 35.2859)" class="st3 st9">Кнопка</text>
<text transform="matrix(1 0 0 1 388.7383 30.7146)" class="st3 st9">Кнопка “вверх”</text>
<text transform="matrix(1 0 0 1 14.7925 169.3814)" class="st3 st9">Кнопка листания слайдера</text>
<text transform="matrix(1 0 0 1 15.2465 48.2634)" class="st3 st2">Обычное </text>
<text transform="matrix(1 0 0 1 13.6465 62.6634)" class="st3 st2">состояние</text>
<text transform="matrix(1 0 0 1 210.4822 52.8659)" class="st3 st2">Обычное </text>
<text transform="matrix(1 0 0 1 208.8822 67.2659)" class="st3 st2">состояние</text>
<text transform="matrix(1 0 0 1 18.0089 202.6338)" class="st3 st2">Обычное </text>
<text transform="matrix(1 0 0 1 16.4089 217.0338)" class="st3 st2">состояние</text>
<text transform="matrix(1 0 0 1 28.6279 268.4647)" class="st3 st2">При </text>
<text transform="matrix(1 0 0 1 15.7279 282.8647)" class="st3 st2">нажатии </text>
<text transform="matrix(1 0 0 1 225.1279 87.199)" class="st3 st2">При </text>
<text transform="matrix(1 0 0 1 205.9279 101.599)" class="st3 st2">наведении </text>
<text transform="matrix(1 0 0 1 414.6808 58.3232)" class="st3 st2">Обычное </text>
<text transform="matrix(1 0 0 1 413.0808 72.7232)" class="st3 st2">состояние</text>
<text transform="matrix(1 0 0 1 429.3264 92.6563)" class="st3 st2">При </text>
<text transform="matrix(1 0 0 1 410.1264 107.0563)" class="st3 st2">наведении </text>
<text transform="matrix(1 0 0 1 29.7327 81.0332)" class="st3 st2">При </text>
<text transform="matrix(1 0 0 1 10.5327 95.4332)" class="st3 st2">наведении </text>
<text transform="matrix(1 0 0 1 5.4148 108.1844)" class="st3 st10">Находишься на </text>
<text transform="matrix(1 0 0 1 8.0148 120.1844)" class="st3 st10">этой странице </text>
<path class="st11" d="M500.7,80.1L500.7,80.1c-8.7,0-15.8-7.1-15.8-15.8v-5.7c0-8.7,7.1-15.8,15.8-15.8l0,0
	c8.7,0,15.8,7.1,15.8,15.8v5.7C516.4,73,509.3,80.1,500.7,80.1z"/>
<line class="st12" x1="500.6" y1="51.6" x2="500.6" y2="72.4"/>
<line class="st12" x1="494.5" y1="57.7" x2="500.6" y2="51.6"/>
<line class="st12" x1="506.6" y1="57.7" x2="500.6" y2="51.6"/>
<path class="st13" d="M500.6,125L500.6,125c-8.7,0-15.8-7.1-15.8-15.8v-5.7c0-8.7,7.1-15.8,15.8-15.8l0,0c8.7,0,15.8,7.1,15.8,15.8
	v5.7C516.3,117.9,509.2,125,500.6,125z"/>
<line class="st12" x1="500.4" y1="96.5" x2="500.4" y2="117.2"/>
<line class="st12" x1="494.4" y1="102.5" x2="500.4" y2="96.5"/>
<line class="st12" x1="506.5" y1="102.5" x2="500.4" y2="96.5"/>
</svg>
