<?xml version="1.0" encoding="utf-8"?>
<!-- Generator: Adobe Illustrator 24.3.0, SVG Export Plug-In . SVG Version: 6.00 Build 0)  -->
<svg version="1.1" id="Layer_1" xmlns="http://www.w3.org/2000/svg" xmlns:xlink="http://www.w3.org/1999/xlink" x="0px" y="0px"
	 viewBox="0 0 841.9 1520.6" style="enable-background:new 0 0 841.9 1520.6;" xml:space="preserve">
<style type="text/css">
	.st0{fill:none;stroke:#1D1D1B;stroke-width:3;stroke-miterlimit:10;}
	.st1{fill:none;stroke:#1D1D1B;stroke-width:2;stroke-miterlimit:10;}
	.st2{fill:#FCFAFA;stroke:#1D1D1B;stroke-width:3;stroke-miterlimit:10;}
	.st3{fill:none;stroke:#1D1D1B;stroke-width:7;stroke-miterlimit:10;}
	.st4{font-family:'MyriadPro-Regular';}
	.st5{font-size:12px;}
	.st6{fill:#FCFAFA;stroke:#1D1D1B;stroke-width:2;stroke-miterlimit:10;}
	.st7{fill:#FFFFFF;stroke:#1D1D1B;stroke-width:3;stroke-miterlimit:10;}
	.st8{font-size:20.3784px;}
	.st9{fill:none;stroke:#1D1D1B;stroke-width:6;stroke-miterlimit:10;}
	.st10{font-size:36px;}
	.st11{font-size:24px;}
</style>
<rect class="st0" width="841.9" height="362.6"/>
<line class="st1" x1="0" y1="362.6" x2="841.9" y2="0"/>
<line class="st1" x1="0" y1="0" x2="841.9" y2="362.6"/>
<rect x="42.3" y="34" class="st2" width="108.2" height="71.6"/>
<line class="st3" x1="184.9" y1="105.6" x2="261.3" y2="105.6"/>
<line class="st0" x1="504.5" y1="105.6" x2="554.8" y2="105.6"/>
<line class="st0" x1="564.5" y1="105.6" x2="614.8" y2="105.6"/>
<line class="st0" x1="626.7" y1="105.6" x2="677.1" y2="105.6"/>
<line class="st0" x1="699.3" y1="105.6" x2="749.6" y2="105.6"/>
<text transform="matrix(1 0 0 1 507.7941 98.7351)" class="st4 st5">Главная</text>
<text transform="matrix(1 0 0 1 571.794 98.7354)" class="st4 st5">О нас</text>
<text transform="matrix(1 0 0 1 634.3527 98.9703)" class="st4 st5">Услуги</text>
<text transform="matrix(1 0 0 1 701.9997 98.7351)" class="st4 st5">Контакты</text>
<line class="st6" x1="42.3" y1="105.6" x2="150.5" y2="34"/>
<line class="st6" x1="42.3" y1="34" x2="150.5" y2="105.6"/>
<rect x="478.2" y="147.6" class="st7" width="260" height="172.4"/>
<line class="st1" x1="478.2" y1="319.9" x2="738.2" y2="147.6"/>
<line class="st1" x1="478.2" y1="147.6" x2="738.2" y2="319.9"/>
<rect x="84.4" y="150.5" class="st7" width="260" height="166.6"/>
<line class="st0" x1="135.1" y1="176.6" x2="293.8" y2="176.6"/>
<line class="st1" x1="161.5" y1="224.6" x2="267.4" y2="223.9"/>
<line class="st1" x1="262.6" y1="213.1" x2="276.8" y2="223.9"/>
<line class="st1" x1="263.1" y1="234.6" x2="276.3" y2="223.9"/>
<line class="st1" x1="166.2" y1="237" x2="152" y2="226.2"/>
<line class="st1" x1="165.7" y1="215.5" x2="152.5" y2="226.2"/>
<line class="st1" x1="208" y1="285.5" x2="220.9" y2="285.5"/>
<line class="st1" x1="168.6" y1="285.5" x2="181.6" y2="285.5"/>
<line class="st1" x1="189.6" y1="285.5" x2="202.6" y2="285.5"/>
<line class="st1" x1="225.1" y1="285.5" x2="238" y2="285.5"/>
<text transform="matrix(1 0 0 1 182.9158 87.3423)" class="st4 st8">ООО Ск Прогресс</text>
<rect x="41" y="1399.7" class="st2" width="108.2" height="71.6"/>
<line class="st3" x1="183.6" y1="1471.3" x2="336.9" y2="1471.3"/>
<line class="st6" x1="41" y1="1471.3" x2="149.2" y2="1399.7"/>
<line class="st6" x1="41" y1="1399.7" x2="149.2" y2="1471.3"/>
<text transform="matrix(1 0 0 1 181.6416 1453.0435)" class="st4 st8">ООО Ск Прогресс</text>
<line class="st9" x1="338.1" y1="427.2" x2="478.2" y2="427.2"/>
<g>
	<rect x="62.3" y="515" class="st2" width="108.2" height="71.6"/>
	<line class="st6" x1="62.3" y1="586.6" x2="170.5" y2="515"/>
	<line class="st6" x1="62.3" y1="515" x2="170.5" y2="586.6"/>
	<rect x="24.2" y="494.4" class="st0" width="184.3" height="184.3"/>
	<line class="st9" x1="82" y1="607.8" x2="150.8" y2="607.8"/>
	<path class="st0" d="M161,653.5H71.7c-4.2,0-7.6-3.4-7.6-7.6v0c0-4.2,3.4-7.6,7.6-7.6H161c4.2,0,7.6,3.4,7.6,7.6v0
		C168.6,650.1,165.2,653.5,161,653.5z"/>
	<rect x="266.2" y="515" class="st2" width="108.2" height="71.6"/>
	<line class="st6" x1="266.2" y1="586.6" x2="374.4" y2="515"/>
	<line class="st6" x1="266.2" y1="515" x2="374.4" y2="586.6"/>
	<rect x="228.2" y="494.4" class="st0" width="184.3" height="184.3"/>
	<line class="st9" x1="285.9" y1="607.8" x2="354.8" y2="607.8"/>
	<path class="st0" d="M365,653.5h-89.3c-4.2,0-7.6-3.4-7.6-7.6v0c0-4.2,3.4-7.6,7.6-7.6H365c4.2,0,7.6,3.4,7.6,7.6v0
		C372.6,650.1,369.2,653.5,365,653.5z"/>
	<rect x="467.4" y="515" class="st2" width="108.2" height="71.6"/>
	<line class="st6" x1="467.4" y1="586.6" x2="575.7" y2="515"/>
	<line class="st6" x1="467.4" y1="515" x2="575.7" y2="586.6"/>
	<rect x="429.4" y="494.4" class="st0" width="184.3" height="184.3"/>
	<line class="st9" x1="487.1" y1="607.8" x2="556" y2="607.8"/>
	<path class="st0" d="M566.2,653.5h-89.3c-4.2,0-7.6-3.4-7.6-7.6v0c0-4.2,3.4-7.6,7.6-7.6h89.3c4.2,0,7.6,3.4,7.6,7.6v0
		C573.8,650.1,570.4,653.5,566.2,653.5z"/>
	<rect x="671.4" y="515" class="st2" width="108.2" height="71.6"/>
	<line class="st6" x1="671.4" y1="586.6" x2="779.6" y2="515"/>
	<line class="st6" x1="671.4" y1="515" x2="779.6" y2="586.6"/>
	<rect x="633.4" y="494.4" class="st0" width="184.3" height="184.3"/>
	<line class="st9" x1="691.1" y1="607.8" x2="759.9" y2="607.8"/>
	<path class="st0" d="M770.2,653.5h-89.3c-4.2,0-7.6-3.4-7.6-7.6v0c0-4.2,3.4-7.6,7.6-7.6h89.3c4.2,0,7.6,3.4,7.6,7.6v0
		C777.8,650.1,774.4,653.5,770.2,653.5z"/>
</g>
<rect x="164.3" y="861.2" class="st2" width="108.2" height="71.6"/>
<line class="st6" x1="164.3" y1="932.8" x2="272.5" y2="861.2"/>
<line class="st6" x1="164.3" y1="861.2" x2="272.5" y2="932.8"/>
<g>
	<rect x="100" y="1137.8" class="st2" width="192.6" height="127.5"/>
	<line class="st6" x1="100" y1="1265.3" x2="292.6" y2="1137.8"/>
	<line class="st6" x1="100" y1="1137.8" x2="292.6" y2="1265.3"/>
	<rect x="328.5" y="1137.8" class="st2" width="192.6" height="127.5"/>
	<line class="st6" x1="328.5" y1="1265.3" x2="521.2" y2="1137.8"/>
	<line class="st6" x1="328.5" y1="1137.8" x2="521.2" y2="1265.3"/>
	<rect x="549.3" y="1137.8" class="st2" width="192.6" height="127.5"/>
	<line class="st6" x1="549.3" y1="1265.3" x2="741.9" y2="1137.8"/>
	<line class="st6" x1="549.3" y1="1137.8" x2="741.9" y2="1265.3"/>
</g>
<line class="st9" x1="183.9" y1="954" x2="252.8" y2="954"/>
<rect x="368.2" y="861.2" class="st2" width="108.2" height="71.6"/>
<line class="st6" x1="368.2" y1="932.8" x2="476.4" y2="861.2"/>
<line class="st6" x1="368.2" y1="861.2" x2="476.4" y2="932.8"/>
<line class="st9" x1="387.9" y1="954" x2="456.7" y2="954"/>
<rect x="569.4" y="861.2" class="st2" width="108.2" height="71.6"/>
<line class="st6" x1="569.4" y1="932.8" x2="677.6" y2="861.2"/>
<line class="st6" x1="569.4" y1="861.2" x2="677.6" y2="932.8"/>
<line class="st9" x1="589.1" y1="954" x2="657.9" y2="954"/>
<text transform="matrix(1 0 0 1 361.0448 413.9513)" class="st4 st10">Услуги</text>
<line class="st9" x1="338.1" y1="767.5" x2="478.2" y2="767.5"/>
<text transform="matrix(1 0 0 1 304.5942 754.1677)" class="st4 st10">Преимущества</text>
<line class="st9" x1="340" y1="1086.8" x2="480.1" y2="1086.8"/>
<text transform="matrix(1 0 0 1 331.221 1073.5056)" class="st4 st10">Партнеры</text>
<line class="st0" x1="164.3" y1="978.3" x2="272.5" y2="978.3"/>
<line class="st0" x1="164.3" y1="987.9" x2="272.5" y2="987.9"/>
<line class="st0" x1="164.3" y1="997.6" x2="272.5" y2="997.6"/>
<line class="st0" x1="513.8" y1="1425.9" x2="801.8" y2="1425.9"/>
<line class="st0" x1="513.8" y1="1451.5" x2="801.8" y2="1451.5"/>
<line class="st0" x1="513.8" y1="1477.2" x2="801.8" y2="1477.2"/>
<line class="st0" x1="368.2" y1="975.2" x2="476.4" y2="975.2"/>
<line class="st0" x1="368.2" y1="984.8" x2="476.4" y2="984.8"/>
<line class="st0" x1="368.2" y1="994.5" x2="476.4" y2="994.5"/>
<line class="st0" x1="569.4" y1="975.2" x2="677.6" y2="975.2"/>
<line class="st0" x1="569.4" y1="984.8" x2="677.6" y2="984.8"/>
<line class="st0" x1="569.4" y1="994.5" x2="677.6" y2="994.5"/>
<line class="st1" x1="400.7" y1="1410.1" x2="461" y2="1410.1"/>
<line class="st1" x1="400.7" y1="1435.5" x2="461" y2="1435.5"/>
<line class="st1" x1="400.7" y1="1471.3" x2="461" y2="1471.3"/>
<g>
	<line class="st1" x1="254.8" y1="1332.5" x2="278.1" y2="1332.5"/>
	<line class="st1" x1="299.9" y1="1332.5" x2="323.2" y2="1332.5"/>
	<line class="st1" x1="344.4" y1="1332.5" x2="367.7" y2="1332.5"/>
	<line class="st1" x1="384.5" y1="1332.5" x2="407.8" y2="1332.5"/>
	<line class="st1" x1="434.1" y1="1332.5" x2="457.3" y2="1332.5"/>
	<line class="st1" x1="479.2" y1="1332.5" x2="502.5" y2="1332.5"/>
	<line class="st1" x1="523.7" y1="1332.5" x2="547" y2="1332.5"/>
	<line class="st1" x1="563.8" y1="1332.5" x2="587.1" y2="1332.5"/>
</g>
<line class="st1" x1="0" y1="1362.5" x2="841.9" y2="1362.5"/>
<text transform="matrix(1 0 0 1 591.5232 1407.0115)" class="st4 st11">адрес</text>
<text transform="matrix(1 0 0 1 550.1961 1443.1798)" class="st4 st11">время работы</text>
<text transform="matrix(1 0 0 1 576.4848 1471.3228)" class="st4 st11">связь</text>
</svg>
