<?xml version="1.0" encoding="utf-8"?>
<!-- Generator: Adobe Illustrator 24.3.0, SVG Export Plug-In . SVG Version: 6.00 Build 0)  -->
<svg version="1.1" id="Layer_1" xmlns="http://www.w3.org/2000/svg" xmlns:xlink="http://www.w3.org/1999/xlink" x="0px" y="0px"
	 viewBox="0 0 841.9 3076.4" style="enable-background:new 0 0 841.9 3076.4;" xml:space="preserve">
<style type="text/css">
	.st0{fill:none;stroke:#1D1D1B;stroke-width:3;stroke-miterlimit:10;}
	.st1{fill:none;stroke:#1D1D1B;stroke-width:2;stroke-miterlimit:10;}
	.st2{fill:#FCFAFA;stroke:#1D1D1B;stroke-width:3;stroke-miterlimit:10;}
	.st3{fill:none;stroke:#1D1D1B;stroke-width:7;stroke-miterlimit:10;}
	.st4{font-family:'MyriadPro-Regular';}
	.st5{font-size:12px;}
	.st6{fill:#FCFAFA;stroke:#1D1D1B;stroke-width:2;stroke-miterlimit:10;}
	.st7{fill:#FFFFFF;stroke:#1D1D1B;stroke-width:3;stroke-miterlimit:10;}
	.st8{font-size:20.3784px;}
	.st9{font-size:28.4613px;}
	.st10{fill:none;stroke:#1D1D1B;stroke-width:6;stroke-miterlimit:10;}
	.st11{font-size:36px;}
	.st12{font-size:35.194px;}
</style>
<rect class="st0" width="841.9" height="765.4"/>
<line class="st1" x1="0" y1="765.4" x2="841.9" y2="0"/>
<line class="st1" x1="0.2" y1="0.2" x2="842.1" y2="765.5"/>
<rect x="42.3" y="34" class="st2" width="108.2" height="71.6"/>
<line class="st3" x1="184.9" y1="105.6" x2="261.3" y2="105.6"/>
<line class="st0" x1="504.5" y1="105.6" x2="554.8" y2="105.6"/>
<line class="st0" x1="564.5" y1="105.6" x2="614.8" y2="105.6"/>
<line class="st0" x1="626.7" y1="105.6" x2="677.1" y2="105.6"/>
<line class="st0" x1="699.3" y1="105.6" x2="749.6" y2="105.6"/>
<text transform="matrix(1 0 0 1 507.7941 98.7351)" class="st4 st5">Главная</text>
<text transform="matrix(1 0 0 1 571.794 98.7354)" class="st4 st5">О нас</text>
<text transform="matrix(1 0 0 1 634.3527 98.9703)" class="st4 st5">Услуги</text>
<text transform="matrix(1 0 0 1 701.9997 98.7351)" class="st4 st5">Контакты</text>
<line class="st6" x1="42.3" y1="105.6" x2="150.5" y2="34"/>
<line class="st6" x1="42.3" y1="34" x2="150.5" y2="105.6"/>
<rect x="211" y="446.7" class="st7" width="390" height="258"/>
<line class="st1" x1="211" y1="704.7" x2="601" y2="446.7"/>
<line class="st1" x1="211" y1="446.7" x2="601" y2="704.7"/>
<rect x="211" y="180.1" class="st7" width="390" height="235.9"/>
<line class="st0" x1="293.6" y1="217.1" x2="518.5" y2="217.1"/>
<line class="st1" x1="331.1" y1="285.1" x2="481" y2="284.1"/>
<line class="st1" x1="474.3" y1="268.8" x2="494.4" y2="284.1"/>
<line class="st1" x1="475" y1="299.3" x2="493.7" y2="284.1"/>
<line class="st1" x1="337.8" y1="302.6" x2="317.6" y2="287.3"/>
<line class="st1" x1="337" y1="272.2" x2="318.4" y2="287.3"/>
<line class="st1" x1="396.9" y1="371.4" x2="415.2" y2="371.4"/>
<line class="st1" x1="341.2" y1="371.4" x2="359.5" y2="371.4"/>
<line class="st1" x1="370.9" y1="371.4" x2="389.2" y2="371.4"/>
<line class="st1" x1="421.1" y1="371.4" x2="439.4" y2="371.4"/>
<text transform="matrix(1 0 0 1 182.9158 87.3423)" class="st4 st8">ООО Ск Прогресс</text>
<rect x="127.8" y="2765.2" class="st2" width="151.1" height="100"/>
<line class="st3" x1="327" y1="2865.2" x2="541" y2="2865.2"/>
<line class="st6" x1="127.8" y1="2865.2" x2="279" y2="2765.2"/>
<line class="st6" x1="127.8" y1="2765.2" x2="279" y2="2865.2"/>
<text transform="matrix(1 0 0 1 324.2104 2839.6777)" class="st4 st9">ООО Ск Прогресс</text>
<line class="st10" x1="347.5" y1="826.9" x2="487.6" y2="826.9"/>
<g>
	<rect x="159.7" y="897.7" class="st2" width="177.1" height="117.2"/>
	<line class="st6" x1="159.7" y1="1014.9" x2="336.8" y2="897.7"/>
	<line class="st6" x1="159.7" y1="897.7" x2="336.8" y2="1014.9"/>
	<rect x="97.4" y="864" class="st0" width="301.7" height="301.7"/>
	<line class="st10" x1="192" y1="1049.6" x2="304.6" y2="1049.6"/>
	<path class="st0" d="M326.2,1124.4H170.4c-4.2,0-7.6-3.4-7.6-7.6v-9.7c0-4.2,3.4-7.6,7.6-7.6h155.9c4.2,0,7.6,3.4,7.6,7.6v9.7
		C333.8,1120.9,330.4,1124.4,326.2,1124.4z"/>
	<rect x="493.6" y="897.7" class="st2" width="177.1" height="117.2"/>
	<line class="st6" x1="493.6" y1="1014.9" x2="670.7" y2="897.7"/>
	<line class="st6" x1="493.6" y1="897.7" x2="670.7" y2="1014.9"/>
	<rect x="431.3" y="864" class="st0" width="301.7" height="301.7"/>
	<line class="st10" x1="525.8" y1="1049.6" x2="638.4" y2="1049.6"/>
	<path class="st0" d="M660.1,1124.4H504.2c-4.2,0-7.6-3.4-7.6-7.6v-9.7c0-4.2,3.4-7.6,7.6-7.6h155.9c4.2,0,7.6,3.4,7.6,7.6v9.7
		C667.6,1120.9,664.2,1124.4,660.1,1124.4z"/>
</g>
<g>
	<rect x="165.5" y="1260.5" class="st2" width="177.1" height="117.2"/>
	<line class="st6" x1="165.5" y1="1377.7" x2="342.6" y2="1260.5"/>
	<line class="st6" x1="165.5" y1="1260.5" x2="342.6" y2="1377.7"/>
	<rect x="103.2" y="1226.9" class="st0" width="301.7" height="301.7"/>
	<line class="st10" x1="197.7" y1="1412.4" x2="310.3" y2="1412.4"/>
	<path class="st0" d="M332,1487.2H176.1c-4.2,0-7.6-3.4-7.6-7.6v-9.7c0-4.2,3.4-7.6,7.6-7.6H332c4.2,0,7.6,3.4,7.6,7.6v9.7
		C339.6,1483.8,336.1,1487.2,332,1487.2z"/>
	<rect x="499.3" y="1260.5" class="st2" width="177.1" height="117.2"/>
	<line class="st6" x1="499.3" y1="1377.7" x2="676.4" y2="1260.5"/>
	<line class="st6" x1="499.3" y1="1260.5" x2="676.4" y2="1377.7"/>
	<rect x="437" y="1226.9" class="st0" width="301.7" height="301.7"/>
	<line class="st10" x1="531.5" y1="1412.4" x2="644.2" y2="1412.4"/>
	<path class="st0" d="M665.8,1487.2H509.9c-4.2,0-7.6-3.4-7.6-7.6v-9.7c0-4.2,3.4-7.6,7.6-7.6h155.9c4.2,0,7.6,3.4,7.6,7.6v9.7
		C673.4,1483.8,670,1487.2,665.8,1487.2z"/>
</g>
<rect x="111.6" y="1678.8" class="st2" width="221.6" height="146.7"/>
<line class="st6" x1="111.6" y1="1825.5" x2="333.2" y2="1678.8"/>
<line class="st6" x1="111.6" y1="1678.8" x2="333.2" y2="1825.5"/>
<g>
	<rect x="123.5" y="2419.9" class="st2" width="272.1" height="180.1"/>
	<line class="st6" x1="123.5" y1="2599.9" x2="395.6" y2="2419.9"/>
	<line class="st6" x1="123.5" y1="2419.9" x2="395.6" y2="2599.9"/>
	<rect x="446.3" y="2419.9" class="st2" width="272.1" height="180.1"/>
	<line class="st6" x1="446.3" y1="2599.9" x2="718.4" y2="2419.9"/>
	<line class="st6" x1="446.3" y1="2419.9" x2="718.4" y2="2599.9"/>
</g>
<line class="st10" x1="152" y1="1868.8" x2="292.9" y2="1868.8"/>
<rect x="529.3" y="1678.8" class="st2" width="221.6" height="146.7"/>
<line class="st6" x1="529.3" y1="1825.5" x2="750.9" y2="1678.8"/>
<line class="st6" x1="529.3" y1="1678.8" x2="750.9" y2="1825.5"/>
<line class="st10" x1="569.7" y1="1868.8" x2="710.6" y2="1868.8"/>
<text transform="matrix(1 0 0 1 370.3843 813.5853)" class="st4 st11">Услуги</text>
<line class="st10" x1="338.3" y1="1627.1" x2="478.4" y2="1627.1"/>
<text transform="matrix(1 0 0 1 304.7705 1613.7676)" class="st4 st11">Преимущества</text>
<line class="st10" x1="350.4" y1="2395.2" x2="490.5" y2="2395.2"/>
<text transform="matrix(1 0 0 1 341.5567 2381.8875)" class="st4 st11">Партнеры</text>
<line class="st0" x1="111.6" y1="1918.6" x2="333.2" y2="1918.6"/>
<line class="st0" x1="111.6" y1="1938.3" x2="333.2" y2="1938.3"/>
<line class="st0" x1="111.6" y1="1958.1" x2="333.2" y2="1958.1"/>
<line class="st0" x1="195.4" y1="2953.3" x2="617.7" y2="2953.3"/>
<line class="st0" x1="195.4" y1="2990.9" x2="617.7" y2="2990.9"/>
<line class="st0" x1="195.4" y1="3028.6" x2="617.7" y2="3028.6"/>
<line class="st0" x1="529.3" y1="1912.2" x2="750.9" y2="1912.2"/>
<line class="st0" x1="529.3" y1="1932" x2="750.9" y2="1932"/>
<line class="st0" x1="529.3" y1="1951.7" x2="750.9" y2="1951.7"/>
<rect x="310.1" y="2026.1" class="st2" width="221.6" height="146.7"/>
<line class="st6" x1="310.1" y1="2172.8" x2="531.7" y2="2026.1"/>
<line class="st6" x1="310.1" y1="2026.1" x2="531.7" y2="2172.8"/>
<line class="st10" x1="350.5" y1="2216.1" x2="491.4" y2="2216.1"/>
<line class="st0" x1="310.1" y1="2259.5" x2="531.7" y2="2259.5"/>
<line class="st0" x1="310.1" y1="2279.3" x2="531.7" y2="2279.3"/>
<line class="st0" x1="310.1" y1="2299" x2="531.7" y2="2299"/>
<line class="st1" x1="626.4" y1="2790.5" x2="710.7" y2="2790.5"/>
<line class="st1" x1="626.4" y1="2825.9" x2="710.7" y2="2825.9"/>
<line class="st1" x1="630.1" y1="2865.2" x2="714.4" y2="2865.2"/>
<g>
	<line class="st1" x1="265.1" y1="2640.9" x2="288.4" y2="2640.9"/>
	<line class="st1" x1="310.3" y1="2640.9" x2="333.6" y2="2640.9"/>
	<line class="st1" x1="354.7" y1="2640.9" x2="378" y2="2640.9"/>
	<line class="st1" x1="394.9" y1="2640.9" x2="418.2" y2="2640.9"/>
	<line class="st1" x1="444.4" y1="2640.9" x2="467.7" y2="2640.9"/>
	<line class="st1" x1="489.6" y1="2640.9" x2="512.9" y2="2640.9"/>
	<line class="st1" x1="534" y1="2640.9" x2="557.3" y2="2640.9"/>
	<line class="st1" x1="574.2" y1="2640.9" x2="597.5" y2="2640.9"/>
</g>
<line class="st1" x1="0" y1="2733" x2="841.9" y2="2733"/>
<text transform="matrix(1 0 0 1 251.9125 2941.8901)" class="st4 st12">адрес</text>
<text transform="matrix(1 0 0 1 248.7691 2978.6873)" class="st4 st12">время работы</text>
<text transform="matrix(1 0 0 1 246.6311 3019.9568)" class="st4 st12">связь</text>
</svg>
