<?xml version="1.0" encoding="utf-8"?>
<!-- Generator: Adobe Illustrator 24.3.0, SVG Export Plug-In . SVG Version: 6.00 Build 0)  -->
<svg version="1.1" id="Layer_1" xmlns="http://www.w3.org/2000/svg" xmlns:xlink="http://www.w3.org/1999/xlink" x="0px" y="0px"
	 viewBox="0 0 841.9 3546.1" style="enable-background:new 0 0 841.9 3546.1;" xml:space="preserve">
<style type="text/css">
	.st0{fill:none;stroke:#1D1D1B;stroke-width:3;stroke-miterlimit:10;}
	.st1{fill:none;stroke:#1D1D1B;stroke-width:2;stroke-miterlimit:10;}
	.st2{fill:#FCFAFA;stroke:#1D1D1B;stroke-width:3;stroke-miterlimit:10;}
	.st3{fill:none;stroke:#1D1D1B;stroke-width:7;stroke-miterlimit:10;}
	.st4{font-family:'MyriadPro-Regular';}
	.st5{font-size:12px;}
	.st6{fill:#FCFAFA;stroke:#1D1D1B;stroke-width:2;stroke-miterlimit:10;}
	.st7{fill:#FFFFFF;stroke:#1D1D1B;stroke-width:3;stroke-miterlimit:10;}
	.st8{font-size:20.3784px;}
	.st9{font-size:34.6196px;}
	.st10{fill:none;stroke:#1D1D1B;stroke-width:6;stroke-miterlimit:10;}
	.st11{font-size:36px;}
	.st12{font-size:51.149px;}
</style>
<rect class="st0" width="841.9" height="765.4"/>
<line class="st1" x1="0" y1="765.4" x2="841.9" y2="0"/>
<line class="st1" x1="0.2" y1="0.2" x2="842.1" y2="765.5"/>
<rect x="42.3" y="34" class="st2" width="108.2" height="71.6"/>
<line class="st3" x1="184.9" y1="105.6" x2="261.3" y2="105.6"/>
<line class="st0" x1="504.5" y1="105.6" x2="554.8" y2="105.6"/>
<line class="st0" x1="564.5" y1="105.6" x2="614.8" y2="105.6"/>
<line class="st0" x1="626.7" y1="105.6" x2="677.1" y2="105.6"/>
<line class="st0" x1="699.3" y1="105.6" x2="749.6" y2="105.6"/>
<text transform="matrix(1 0 0 1 507.7941 98.7351)" class="st4 st5">Главная</text>
<text transform="matrix(1 0 0 1 571.794 98.7354)" class="st4 st5">О нас</text>
<text transform="matrix(1 0 0 1 634.3527 98.9703)" class="st4 st5">Услуги</text>
<text transform="matrix(1 0 0 1 701.9997 98.7351)" class="st4 st5">Контакты</text>
<line class="st6" x1="42.3" y1="105.6" x2="150.5" y2="34"/>
<line class="st6" x1="42.3" y1="34" x2="150.5" y2="105.6"/>
<rect x="211" y="446.7" class="st7" width="390" height="258"/>
<line class="st1" x1="211" y1="704.7" x2="601" y2="446.7"/>
<line class="st1" x1="211" y1="446.7" x2="601" y2="704.7"/>
<rect x="211" y="180.1" class="st7" width="390" height="235.9"/>
<line class="st0" x1="293.6" y1="217.1" x2="518.5" y2="217.1"/>
<line class="st1" x1="331.1" y1="285.1" x2="481" y2="284.1"/>
<line class="st1" x1="474.3" y1="268.8" x2="494.4" y2="284.1"/>
<line class="st1" x1="475" y1="299.3" x2="493.7" y2="284.1"/>
<line class="st1" x1="337.8" y1="302.6" x2="317.6" y2="287.3"/>
<line class="st1" x1="337" y1="272.2" x2="318.4" y2="287.3"/>
<line class="st1" x1="396.9" y1="371.4" x2="415.2" y2="371.4"/>
<line class="st1" x1="341.2" y1="371.4" x2="359.5" y2="371.4"/>
<line class="st1" x1="370.9" y1="371.4" x2="389.2" y2="371.4"/>
<line class="st1" x1="421.1" y1="371.4" x2="439.4" y2="371.4"/>
<text transform="matrix(1 0 0 1 182.9158 87.3423)" class="st4 st8">ООО Ск Прогресс</text>
<g>
	<rect x="169.2" y="2969.3" class="st2" width="183.8" height="121.7"/>
	<line class="st3" x1="411.5" y1="3091" x2="671.7" y2="3091"/>
	<line class="st6" x1="169.2" y1="3091" x2="353" y2="2969.3"/>
	<line class="st6" x1="169.2" y1="2969.3" x2="353" y2="3091"/>
	<text transform="matrix(1 0 0 1 408.0548 3059.8987)" class="st4 st9">ООО Ск Прогресс</text>
</g>
<line class="st10" x1="347.5" y1="826.9" x2="487.6" y2="826.9"/>
<rect x="291.2" y="892.4" class="st2" width="229.6" height="152"/>
<line class="st6" x1="291.2" y1="1044.3" x2="520.8" y2="892.4"/>
<line class="st6" x1="291.2" y1="892.4" x2="520.8" y2="1044.3"/>
<rect x="210.5" y="848.8" class="st0" width="391.1" height="391.1"/>
<line class="st10" x1="333" y1="1089.3" x2="479.1" y2="1089.3"/>
<path class="st0" d="M509.3,1186.3H302.8c-4.2,0-7.6-3.4-7.6-7.6v-17c0-4.2,3.4-7.6,7.6-7.6h206.6c4.2,0,7.6,3.4,7.6,7.6v17
	C516.9,1182.8,513.5,1186.3,509.3,1186.3z"/>
<rect x="291.2" y="1362.8" class="st2" width="229.6" height="152"/>
<line class="st6" x1="291.2" y1="1514.7" x2="520.8" y2="1362.8"/>
<line class="st6" x1="291.2" y1="1362.8" x2="520.8" y2="1514.7"/>
<rect x="210.5" y="1319.2" class="st0" width="391.1" height="391.1"/>
<line class="st10" x1="333" y1="1559.7" x2="479.1" y2="1559.7"/>
<path class="st0" d="M509.3,1656.6H302.8c-4.2,0-7.6-3.4-7.6-7.6v-17c0-4.2,3.4-7.6,7.6-7.6h206.6c4.2,0,7.6,3.4,7.6,7.6v17
	C516.9,1653.2,513.5,1656.6,509.3,1656.6z"/>
<g>
	<rect x="214.4" y="2596.3" class="st2" width="413" height="273.4"/>
	<line class="st6" x1="214.4" y1="2869.7" x2="627.5" y2="2596.3"/>
	<line class="st6" x1="214.4" y1="2596.3" x2="627.5" y2="2869.7"/>
</g>
<text transform="matrix(1 0 0 1 370.3843 813.5853)" class="st4 st11">Услуги</text>
<line class="st10" x1="313.1" y1="1816.8" x2="453.2" y2="1816.8"/>
<text transform="matrix(1 0 0 1 279.5334 1803.5238)" class="st4 st11">Преимущества</text>
<line class="st10" x1="335.5" y1="2574.5" x2="475.6" y2="2574.5"/>
<text transform="matrix(1 0 0 1 326.6553 2561.2021)" class="st4 st11">Партнеры</text>
<line class="st0" x1="114.1" y1="3368.6" x2="727.8" y2="3368.6"/>
<line class="st0" x1="114.1" y1="3423.3" x2="727.8" y2="3423.3"/>
<line class="st0" x1="114.1" y1="3478" x2="727.8" y2="3478"/>
<g>
	<rect x="310.1" y="1868.6" class="st2" width="221.6" height="146.7"/>
	<line class="st6" x1="310.1" y1="2015.2" x2="531.7" y2="1868.6"/>
	<line class="st6" x1="310.1" y1="1868.6" x2="531.7" y2="2015.2"/>
	<line class="st10" x1="350.5" y1="2058.6" x2="491.4" y2="2058.6"/>
	<line class="st0" x1="310.1" y1="2108.3" x2="531.7" y2="2108.3"/>
	<line class="st0" x1="310.1" y1="2128.1" x2="531.7" y2="2128.1"/>
	<line class="st0" x1="310.1" y1="2147.9" x2="531.7" y2="2147.9"/>
	<rect x="310.1" y="2215.8" class="st2" width="221.6" height="146.7"/>
	<line class="st6" x1="310.1" y1="2362.5" x2="531.7" y2="2215.8"/>
	<line class="st6" x1="310.1" y1="2215.8" x2="531.7" y2="2362.5"/>
	<line class="st10" x1="350.5" y1="2405.9" x2="491.4" y2="2405.9"/>
	<line class="st0" x1="310.1" y1="2449.3" x2="531.7" y2="2449.3"/>
	<line class="st0" x1="310.1" y1="2469" x2="531.7" y2="2469"/>
	<line class="st0" x1="310.1" y1="2488.8" x2="531.7" y2="2488.8"/>
</g>
<line class="st1" x1="293.6" y1="3152.6" x2="498.8" y2="3152.6"/>
<line class="st1" x1="293.6" y1="3197.8" x2="498.8" y2="3197.8"/>
<line class="st1" x1="293.6" y1="3242.6" x2="498.8" y2="3242.6"/>
<g>
	<line class="st1" x1="254.8" y1="2901.4" x2="278.1" y2="2901.4"/>
	<line class="st1" x1="299.9" y1="2901.4" x2="323.2" y2="2901.4"/>
	<line class="st1" x1="344.4" y1="2901.4" x2="367.7" y2="2901.4"/>
	<line class="st1" x1="384.5" y1="2901.4" x2="407.8" y2="2901.4"/>
	<line class="st1" x1="434.1" y1="2901.4" x2="457.3" y2="2901.4"/>
	<line class="st1" x1="479.2" y1="2901.4" x2="502.5" y2="2901.4"/>
	<line class="st1" x1="523.7" y1="2901.4" x2="547" y2="2901.4"/>
	<line class="st1" x1="563.8" y1="2901.4" x2="587.1" y2="2901.4"/>
</g>
<line class="st1" x1="0" y1="2941.9" x2="841.9" y2="2941.9"/>
<text transform="matrix(1 0 0 1 196.2392 3352.031)" class="st4 st12">адрес</text>
<text transform="matrix(1 0 0 1 191.6703 3405.5095)" class="st4 st12">время работы</text>
<text transform="matrix(1 0 0 1 188.5629 3465.489)" class="st4 st12">связь</text>
</svg>
